<?xml version="1.0" encoding="utf-8" standalone="no"?>
<!DOCTYPE svg PUBLIC "-//W3C//DTD SVG 1.1//EN"
  "http://www.w3.org/Graphics/SVG/1.1/DTD/svg11.dtd">
<svg xmlns:xlink="http://www.w3.org/1999/xlink" width="696.922094pt" height="395.670125pt" viewBox="0 0 696.922094 395.670125" xmlns="http://www.w3.org/2000/svg" version="1.1">
 <metadata>
  <rdf:RDF xmlns:dc="http://purl.org/dc/elements/1.1/" xmlns:cc="http://creativecommons.org/ns#" xmlns:rdf="http://www.w3.org/1999/02/22-rdf-syntax-ns#">
   <cc:Work>
    <dc:type rdf:resource="http://purl.org/dc/dcmitype/StillImage"/>
    <dc:date>2026-06-16T10:11:57.890164</dc:date>
    <dc:format>image/svg+xml</dc:format>
    <dc:creator>
     <cc:Agent>
      <dc:title>Matplotlib v3.10.8, https://matplotlib.org/</dc:title>
     </cc:Agent>
    </dc:creator>
   </cc:Work>
  </rdf:RDF>
 </metadata>
 <defs>
  <style type="text/css">*{stroke-linejoin: round; stroke-linecap: butt}</style>
 </defs>
 <g id="figure_1">
  <g id="patch_1">
   <path d="M 0 395.670125
L 696.922094 395.670125
L 696.922094 0
L 0 0
z
" style="fill: #fbfaf7"/>
  </g>
  <g id="axes_1">
   <g id="patch_2">
    <path d="M 39.706094 342.72
L 518.938094 342.72
L 518.938094 61.92
L 39.706094 61.92
z
" style="fill: #fbfaf7"/>
   </g>
   <g id="FillBetweenPolyCollection_1">
    <defs>
     <path id="m41f49e51b7" d="M 36.129736 -269.121554
L 36.129736 -46.264411
L 515.361736 -46.264411
L 515.361736 -269.121554
L 515.361736 -269.121554
L 36.129736 -269.121554
z
" style="stroke: #cdefe9; stroke-opacity: 0.34"/>
    </defs>
    <g clip-path="url(#pc4bbe0e899)">
     <use xlink:href="#m41f49e51b7" x="0" y="395.670125" style="fill: #cdefe9; fill-opacity: 0.34; stroke: #cdefe9; stroke-opacity: 0.34"/>
    </g>
   </g>
   <g id="FillBetweenPolyCollection_2">
    <defs>
     <path id="m4bf62069ac" d="M 36.129736 -335.978696
L 36.129736 -269.121554
L 515.361736 -269.121554
L 515.361736 -335.978696
L 515.361736 -335.978696
L 36.129736 -335.978696
z
" style="stroke: #f6d8ba; stroke-opacity: 0.25"/>
    </defs>
    <g clip-path="url(#pc4bbe0e899)">
     <use xlink:href="#m4bf62069ac" x="0" y="395.670125" style="fill: #f6d8ba; fill-opacity: 0.25; stroke: #f6d8ba; stroke-opacity: 0.25"/>
    </g>
   </g>
   <g id="line2d_1">
    <path d="M 39.706094 126.548571
L 518.938094 126.548571
" clip-path="url(#pc4bbe0e899)" style="fill: none; stroke: #171717; stroke-opacity: 0.72; stroke-width: 0.9; stroke-linecap: square"/>
   </g>
   <g id="FillBetweenPolyCollection_3">
    <defs>
     <path id="m911d3a33bc" d="M 57.587885 -147.807334
L 57.587885 -17.901609
L 200.642213 -68.42737
L 486.75087 -100.04437
L 486.75087 -124.325437
L 486.75087 -124.325437
L 200.642213 -83.860061
L 57.587885 -147.807334
z
"/>
    </defs>
    <g clip-path="url(#pc4bbe0e899)">
     <use xlink:href="#m911d3a33bc" x="0" y="395.670125" style="fill: #0f766e; fill-opacity: 0.1"/>
    </g>
   </g>
   <g id="FillBetweenPolyCollection_4">
    <defs>
     <path id="mebe9a72f44" d="M 57.587885 -288.924381
L 57.587885 -272.006119
L 200.642213 -239.540498
L 486.75087 -299.666577
L 486.75087 -328.434019
L 486.75087 -328.434019
L 200.642213 -262.406383
L 57.587885 -288.924381
z
"/>
    </defs>
    <g clip-path="url(#pc4bbe0e899)">
     <use xlink:href="#mebe9a72f44" x="0" y="395.670125" style="fill: #b65f1b; fill-opacity: 0.1"/>
    </g>
   </g>
   <g id="FillBetweenPolyCollection_5">
    <defs>
     <path id="mc58c760879" d="M 57.587885 -276.473798
L 57.587885 -260.102515
L 200.642213 -206.618186
L 486.75087 -256.293272
L 486.75087 -346.365651
L 486.75087 -346.365651
L 200.642213 -316.536616
L 57.587885 -276.473798
z
"/>
    </defs>
    <g clip-path="url(#pc4bbe0e899)">
     <use xlink:href="#mc58c760879" x="0" y="395.670125" style="fill: #3b82c4; fill-opacity: 0.055"/>
    </g>
   </g>
   <g id="FillBetweenPolyCollection_6">
    <defs>
     <path id="mf40afaad6e" d="M 57.587885 -269.121554
L 57.587885 -269.121554
L 200.642213 -269.121554
L 486.75087 -269.121554
L 486.75087 -269.121554
L 486.75087 -269.121554
L 200.642213 -269.121554
L 57.587885 -269.121554
z
"/>
    </defs>
    <g clip-path="url(#pc4bbe0e899)">
     <use xlink:href="#mf40afaad6e" x="0" y="395.670125" style="fill: #7e62c7; fill-opacity: 0.055"/>
    </g>
   </g>
   <g id="matplotlib.axis_1">
    <g id="xtick_1">
     <g id="line2d_2">
      <defs>
       <path id="m0b4792b5ad" d="M 0 0
L 0 3.5
" style="stroke: #6b7280; stroke-width: 0.8"/>
      </defs>
      <g>
       <use xlink:href="#m0b4792b5ad" x="57.587885" y="342.72" style="fill: #6b7280; stroke: #6b7280; stroke-width: 0.8"/>
      </g>
     </g>
     <g id="text_1">
      <text style="font-size: 9px; font-family: 'DejaVu Sans'; text-anchor: middle; fill: #6b7280" x="57.587885" y="356.558594" transform="rotate(-0 57.587885 356.558594)">2</text>
     </g>
    </g>
    <g id="xtick_2">
     <g id="line2d_3">
      <g>
       <use xlink:href="#m0b4792b5ad" x="200.642213" y="342.72" style="fill: #6b7280; stroke: #6b7280; stroke-width: 0.8"/>
      </g>
     </g>
     <g id="text_2">
      <text style="font-size: 9px; font-family: 'DejaVu Sans'; text-anchor: middle; fill: #6b7280" x="200.642213" y="356.558594" transform="rotate(-0 200.642213 356.558594)">4</text>
     </g>
    </g>
    <g id="xtick_3">
     <g id="line2d_4">
      <g>
       <use xlink:href="#m0b4792b5ad" x="486.75087" y="342.72" style="fill: #6b7280; stroke: #6b7280; stroke-width: 0.8"/>
      </g>
     </g>
     <g id="text_3">
      <text style="font-size: 9px; font-family: 'DejaVu Sans'; text-anchor: middle; fill: #6b7280" x="486.75087" y="356.558594" transform="rotate(-0 486.75087 356.558594)">8</text>
     </g>
    </g>
    <g id="text_4">
     <text style="font-size: 10px; font-family: 'DejaVu Sans'; text-anchor: middle" x="279.322094" y="370.02875" transform="rotate(-0 279.322094 370.02875)">nominal NFE</text>
    </g>
   </g>
   <g id="matplotlib.axis_2">
    <g id="ytick_1">
     <g id="line2d_5">
      <path d="M 39.706094 304.834286
L 518.938094 304.834286
" clip-path="url(#pc4bbe0e899)" style="fill: none; stroke: #e8e2d8; stroke-opacity: 0.8; stroke-width: 0.8; stroke-linecap: square"/>
     </g>
     <g id="line2d_6">
      <defs>
       <path id="m37df5f4989" d="M 0 0
L -3.5 0
" style="stroke: #6b7280; stroke-width: 0.8"/>
      </defs>
      <g>
       <use xlink:href="#m37df5f4989" x="39.706094" y="304.834286" style="fill: #6b7280; stroke: #6b7280; stroke-width: 0.8"/>
      </g>
     </g>
     <g id="text_5">
      <text style="font-size: 9px; font-family: 'DejaVu Sans'; text-anchor: end; fill: #6b7280" x="32.706094" y="308.253583" transform="rotate(-0 32.706094 308.253583)">−4</text>
     </g>
    </g>
    <g id="ytick_2">
     <g id="line2d_7">
      <path d="M 39.706094 260.262857
L 518.938094 260.262857
" clip-path="url(#pc4bbe0e899)" style="fill: none; stroke: #e8e2d8; stroke-opacity: 0.8; stroke-width: 0.8; stroke-linecap: square"/>
     </g>
     <g id="line2d_8">
      <g>
       <use xlink:href="#m37df5f4989" x="39.706094" y="260.262857" style="fill: #6b7280; stroke: #6b7280; stroke-width: 0.8"/>
      </g>
     </g>
     <g id="text_6">
      <text style="font-size: 9px; font-family: 'DejaVu Sans'; text-anchor: end; fill: #6b7280" x="32.706094" y="263.682154" transform="rotate(-0 32.706094 263.682154)">−3</text>
     </g>
    </g>
    <g id="ytick_3">
     <g id="line2d_9">
      <path d="M 39.706094 215.691429
L 518.938094 215.691429
" clip-path="url(#pc4bbe0e899)" style="fill: none; stroke: #e8e2d8; stroke-opacity: 0.8; stroke-width: 0.8; stroke-linecap: square"/>
     </g>
     <g id="line2d_10">
      <g>
       <use xlink:href="#m37df5f4989" x="39.706094" y="215.691429" style="fill: #6b7280; stroke: #6b7280; stroke-width: 0.8"/>
      </g>
     </g>
     <g id="text_7">
      <text style="font-size: 9px; font-family: 'DejaVu Sans'; text-anchor: end; fill: #6b7280" x="32.706094" y="219.110725" transform="rotate(-0 32.706094 219.110725)">−2</text>
     </g>
    </g>
    <g id="ytick_4">
     <g id="line2d_11">
      <path d="M 39.706094 171.12
L 518.938094 171.12
" clip-path="url(#pc4bbe0e899)" style="fill: none; stroke: #e8e2d8; stroke-opacity: 0.8; stroke-width: 0.8; stroke-linecap: square"/>
     </g>
     <g id="line2d_12">
      <g>
       <use xlink:href="#m37df5f4989" x="39.706094" y="171.12" style="fill: #6b7280; stroke: #6b7280; stroke-width: 0.8"/>
      </g>
     </g>
     <g id="text_8">
      <text style="font-size: 9px; font-family: 'DejaVu Sans'; text-anchor: end; fill: #6b7280" x="32.706094" y="174.539297" transform="rotate(-0 32.706094 174.539297)">−1</text>
     </g>
    </g>
    <g id="ytick_5">
     <g id="line2d_13">
      <path d="M 39.706094 126.548571
L 518.938094 126.548571
" clip-path="url(#pc4bbe0e899)" style="fill: none; stroke: #e8e2d8; stroke-opacity: 0.8; stroke-width: 0.8; stroke-linecap: square"/>
     </g>
     <g id="line2d_14">
      <g>
       <use xlink:href="#m37df5f4989" x="39.706094" y="126.548571" style="fill: #6b7280; stroke: #6b7280; stroke-width: 0.8"/>
      </g>
     </g>
     <g id="text_9">
      <text style="font-size: 9px; font-family: 'DejaVu Sans'; text-anchor: end; fill: #6b7280" x="32.706094" y="129.967868" transform="rotate(-0 32.706094 129.967868)">0</text>
     </g>
    </g>
    <g id="ytick_6">
     <g id="line2d_15">
      <path d="M 39.706094 81.977143
L 518.938094 81.977143
" clip-path="url(#pc4bbe0e899)" style="fill: none; stroke: #e8e2d8; stroke-opacity: 0.8; stroke-width: 0.8; stroke-linecap: square"/>
     </g>
     <g id="line2d_16">
      <g>
       <use xlink:href="#m37df5f4989" x="39.706094" y="81.977143" style="fill: #6b7280; stroke: #6b7280; stroke-width: 0.8"/>
      </g>
     </g>
     <g id="text_10">
      <text style="font-size: 9px; font-family: 'DejaVu Sans'; text-anchor: end; fill: #6b7280" x="32.706094" y="85.39644" transform="rotate(-0 32.706094 85.39644)">1</text>
     </g>
    </g>
    <g id="text_11">
     <text style="font-size: 10px; font-family: 'DejaVu Sans'; text-anchor: middle" x="13.358438" y="202.32" transform="rotate(-90 13.358438 202.32)">FID delta vs raw clock</text>
    </g>
   </g>
   <g id="line2d_17">
    <path d="M 57.587885 127.381968
L 200.642213 134.092724
L 486.75087 94.340664
" clip-path="url(#pc4bbe0e899)" style="fill: none; stroke: #3b82c4; stroke-opacity: 0.58; stroke-width: 1.7; stroke-linecap: round"/>
    <defs>
     <path id="m9d889fe38b" d="M 0 2.75
C 0.729309 2.75 1.428845 2.460243 1.944544 1.944544
C 2.460243 1.428845 2.75 0.729309 2.75 0
C 2.75 -0.729309 2.460243 -1.428845 1.944544 -1.944544
C 1.428845 -2.460243 0.729309 -2.75 0 -2.75
C -0.729309 -2.75 -1.428845 -2.460243 -1.944544 -1.944544
C -2.460243 -1.428845 -2.75 -0.729309 -2.75 0
C -2.75 0.729309 -2.460243 1.428845 -1.944544 1.944544
C -1.428845 2.460243 -0.729309 2.75 0 2.75
z
" style="stroke: #3b82c4; stroke-opacity: 0.58"/>
    </defs>
    <g clip-path="url(#pc4bbe0e899)">
     <use xlink:href="#m9d889fe38b" x="57.587885" y="127.381968" style="fill: #3b82c4; fill-opacity: 0.58; stroke: #3b82c4; stroke-opacity: 0.58"/>
     <use xlink:href="#m9d889fe38b" x="200.642213" y="134.092724" style="fill: #3b82c4; fill-opacity: 0.58; stroke: #3b82c4; stroke-opacity: 0.58"/>
     <use xlink:href="#m9d889fe38b" x="486.75087" y="94.340664" style="fill: #3b82c4; fill-opacity: 0.58; stroke: #3b82c4; stroke-opacity: 0.58"/>
    </g>
   </g>
   <g id="line2d_18">
    <path d="M 57.587885 126.548571
L 200.642213 126.548571
L 486.75087 126.548571
" clip-path="url(#pc4bbe0e899)" style="fill: none; stroke: #7e62c7; stroke-opacity: 0.5; stroke-width: 1.7; stroke-linecap: round"/>
    <defs>
     <path id="m539cf21bd6" d="M 0 2.75
C 0.729309 2.75 1.428845 2.460243 1.944544 1.944544
C 2.460243 1.428845 2.75 0.729309 2.75 0
C 2.75 -0.729309 2.460243 -1.428845 1.944544 -1.944544
C 1.428845 -2.460243 0.729309 -2.75 0 -2.75
C -0.729309 -2.75 -1.428845 -2.460243 -1.944544 -1.944544
C -2.460243 -1.428845 -2.75 -0.729309 -2.75 0
C -2.75 0.729309 -2.460243 1.428845 -1.944544 1.944544
C -1.428845 2.460243 -0.729309 2.75 0 2.75
z
" style="stroke: #7e62c7; stroke-opacity: 0.5"/>
    </defs>
    <g clip-path="url(#pc4bbe0e899)">
     <use xlink:href="#m539cf21bd6" x="57.587885" y="126.548571" style="fill: #7e62c7; fill-opacity: 0.5; stroke: #7e62c7; stroke-opacity: 0.5"/>
     <use xlink:href="#m539cf21bd6" x="200.642213" y="126.548571" style="fill: #7e62c7; fill-opacity: 0.5; stroke: #7e62c7; stroke-opacity: 0.5"/>
     <use xlink:href="#m539cf21bd6" x="486.75087" y="126.548571" style="fill: #7e62c7; fill-opacity: 0.5; stroke: #7e62c7; stroke-opacity: 0.5"/>
    </g>
   </g>
   <g id="patch_3">
    <path d="M 39.706094 342.72
L 39.706094 61.92
" style="fill: none; stroke: #d9d4ca; stroke-width: 0.8; stroke-linejoin: miter; stroke-linecap: square"/>
   </g>
   <g id="patch_4">
    <path d="M 39.706094 342.72
L 518.938094 342.72
" style="fill: none; stroke: #d9d4ca; stroke-width: 0.8; stroke-linejoin: miter; stroke-linecap: square"/>
   </g>
   <g id="line2d_19">
    <path d="M 57.587885 312.815654
L 200.642213 319.526409
L 486.75087 283.485222
" clip-path="url(#pc4bbe0e899)" style="fill: none; stroke: #0f766e; stroke-opacity: 0.98; stroke-width: 3; stroke-linecap: round"/>
    <defs>
     <path id="m3e8bd54264" d="M 0 3.75
C 0.994512 3.75 1.948425 3.354876 2.65165 2.65165
C 3.354876 1.948425 3.75 0.994512 3.75 0
C 3.75 -0.994512 3.354876 -1.948425 2.65165 -2.65165
C 1.948425 -3.354876 0.994512 -3.75 0 -3.75
C -0.994512 -3.75 -1.948425 -3.354876 -2.65165 -2.65165
C -3.354876 -1.948425 -3.75 -0.994512 -3.75 0
C -3.75 0.994512 -3.354876 1.948425 -2.65165 2.65165
C -1.948425 3.354876 -0.994512 3.75 0 3.75
z
" style="stroke: #0f766e; stroke-opacity: 0.98"/>
    </defs>
    <g clip-path="url(#pc4bbe0e899)">
     <use xlink:href="#m3e8bd54264" x="57.587885" y="312.815654" style="fill: #0f766e; fill-opacity: 0.98; stroke: #0f766e; stroke-opacity: 0.98"/>
     <use xlink:href="#m3e8bd54264" x="200.642213" y="319.526409" style="fill: #0f766e; fill-opacity: 0.98; stroke: #0f766e; stroke-opacity: 0.98"/>
     <use xlink:href="#m3e8bd54264" x="486.75087" y="283.485222" style="fill: #0f766e; fill-opacity: 0.98; stroke: #0f766e; stroke-opacity: 0.98"/>
    </g>
   </g>
   <g id="line2d_20">
    <path d="M 57.587885 115.204875
L 200.642213 144.696685
L 486.75087 81.619827
" clip-path="url(#pc4bbe0e899)" style="fill: none; stroke: #b65f1b; stroke-opacity: 0.98; stroke-width: 2.7; stroke-linecap: round"/>
    <defs>
     <path id="m4a01cd09e3" d="M 0 3.75
C 0.994512 3.75 1.948425 3.354876 2.65165 2.65165
C 3.354876 1.948425 3.75 0.994512 3.75 0
C 3.75 -0.994512 3.354876 -1.948425 2.65165 -2.65165
C 1.948425 -3.354876 0.994512 -3.75 0 -3.75
C -0.994512 -3.75 -1.948425 -3.354876 -2.65165 -2.65165
C -3.354876 -1.948425 -3.75 -0.994512 -3.75 0
C -3.75 0.994512 -3.354876 1.948425 -2.65165 2.65165
C -1.948425 3.354876 -0.994512 3.75 0 3.75
z
" style="stroke: #b65f1b; stroke-opacity: 0.98"/>
    </defs>
    <g clip-path="url(#pc4bbe0e899)">
     <use xlink:href="#m4a01cd09e3" x="57.587885" y="115.204875" style="fill: #b65f1b; fill-opacity: 0.98; stroke: #b65f1b; stroke-opacity: 0.98"/>
     <use xlink:href="#m4a01cd09e3" x="200.642213" y="144.696685" style="fill: #b65f1b; fill-opacity: 0.98; stroke: #b65f1b; stroke-opacity: 0.98"/>
     <use xlink:href="#m4a01cd09e3" x="486.75087" y="81.619827" style="fill: #b65f1b; fill-opacity: 0.98; stroke: #b65f1b; stroke-opacity: 0.98"/>
    </g>
   </g>
   <g id="text_12">
    <path d="M 415.63266 106.426406
L 415.63266 107.191406
Q 415.290941 107.015625 414.921097 106.928438
Q 414.55266 106.839844 414.156097 106.839844
Q 413.554222 106.839844 413.253285 107.024063
Q 412.952347 107.208281 412.952347 107.578125
Q 412.952347 107.859375 413.167504 108.019688
Q 413.38266 108.18 414.033754 108.324844
L 414.310785 108.386719
Q 415.17141 108.570938 415.534222 108.907031
Q 415.897035 109.243125 415.897035 109.845
Q 415.897035 110.53125 415.354222 110.932031
Q 414.81141 111.331406 413.862191 111.331406
Q 413.467035 111.331406 413.038129 111.254063
Q 412.609222 111.176719 412.135316 111.023438
L 412.135316 110.188125
Q 412.58391 110.421563 413.018441 110.538281
Q 413.452972 110.653594 413.880472 110.653594
Q 414.45141 110.653594 414.757972 110.458125
Q 415.065941 110.262656 415.065941 109.906875
Q 415.065941 109.577813 414.843754 109.402031
Q 414.622972 109.22625 413.870629 109.063125
L 413.589379 108.997031
Q 412.838441 108.839531 412.503754 108.511875
Q 412.170472 108.184219 412.170472 107.613281
Q 412.170472 106.918594 412.66266 106.541719
Q 413.154847 106.163438 414.060472 106.163438
Q 414.50766 106.163438 414.902816 106.229531
Q 415.299379 106.294219 415.63266 106.426406
z
M 417.184281 106.281563
L 417.992875 106.281563
L 417.992875 111.203438
L 417.184281 111.203438
L 417.184281 106.281563
z
M 417.184281 104.364844
L 417.992875 104.364844
L 417.992875 105.39
L 417.184281 105.39
L 417.184281 104.364844
z
M 422.923363 108.684844
Q 422.923363 107.805938 422.560551 107.323594
Q 422.199144 106.839844 421.543832 106.839844
Q 420.894144 106.839844 420.531332 107.323594
Q 420.168519 107.805938 420.168519 108.684844
Q 420.168519 109.559531 420.531332 110.043281
Q 420.894144 110.527031 421.543832 110.527031
Q 422.199144 110.527031 422.560551 110.043281
Q 422.923363 109.559531 422.923363 108.684844
z
M 423.731957 110.593125
Q 423.731957 111.848906 423.173676 112.462031
Q 422.616801 113.075156 421.465082 113.075156
Q 421.038988 113.075156 420.660707 113.011875
Q 420.282426 112.948594 419.926644 112.816406
L 419.926644 112.030313
Q 420.282426 112.222969 420.629769 112.314375
Q 420.977113 112.407188 421.337113 112.407188
Q 422.133051 112.407188 422.528207 111.992344
Q 422.923363 111.5775 422.923363 110.737969
L 422.923363 110.337188
Q 422.673051 110.773125 422.282113 110.988281
Q 421.891176 111.203438 421.345551 111.203438
Q 420.441332 111.203438 419.887269 110.514375
Q 419.333207 109.823906 419.333207 108.684844
Q 419.333207 107.542969 419.887269 106.853906
Q 420.441332 106.163438 421.345551 106.163438
Q 421.891176 106.163438 422.282113 106.378594
Q 422.673051 106.59375 422.923363 107.028281
L 422.923363 106.281563
L 423.731957 106.281563
L 423.731957 110.593125
z
M 429.229691 107.226562
Q 429.533441 106.680938 429.955316 106.422188
Q 430.377191 106.163438 430.948129 106.163438
Q 431.717347 106.163438 432.135004 106.702031
Q 432.55266 107.239219 432.55266 108.232031
L 432.55266 111.203438
L 431.739847 111.203438
L 431.739847 108.25875
Q 431.739847 107.551406 431.488129 107.209688
Q 431.237816 106.866563 430.724535 106.866563
Q 430.095941 106.866563 429.730316 107.284219
Q 429.366097 107.700469 429.366097 108.421875
L 429.366097 111.203438
L 428.553285 111.203438
L 428.553285 108.25875
Q 428.553285 107.547188 428.302972 107.206875
Q 428.05266 106.866563 427.529535 106.866563
Q 426.909379 106.866563 426.543754 107.285625
Q 426.179535 107.704688 426.179535 108.421875
L 426.179535 111.203438
L 425.366722 111.203438
L 425.366722 106.281563
L 426.179535 106.281563
L 426.179535 107.046563
Q 426.456566 106.59375 426.843285 106.378594
Q 427.230004 106.163438 427.761566 106.163438
Q 428.298754 106.163438 428.674222 106.43625
Q 429.049691 106.707656 429.229691 107.226562
z
M 436.402094 108.729844
Q 435.421937 108.729844 435.043656 108.953438
Q 434.665375 109.177031 434.665375 109.718438
Q 434.665375 110.14875 434.949437 110.401875
Q 435.2335 110.653594 435.720062 110.653594
Q 436.393656 110.653594 436.800062 110.176875
Q 437.206469 109.700156 437.206469 108.909844
L 437.206469 108.729844
L 436.402094 108.729844
z
M 438.015062 108.395156
L 438.015062 111.203438
L 437.206469 111.203438
L 437.206469 110.456719
Q 436.929437 110.903906 436.516 111.117656
Q 436.102562 111.331406 435.504906 111.331406
Q 434.74975 111.331406 434.302562 110.906719
Q 433.856781 110.482031 433.856781 109.770469
Q 433.856781 108.940781 434.41225 108.518906
Q 434.969125 108.097031 436.071625 108.097031
L 437.206469 108.097031
L 437.206469 108.016875
Q 437.206469 107.458594 436.839437 107.153438
Q 436.472406 106.848281 435.808656 106.848281
Q 435.386781 106.848281 434.986 106.949531
Q 434.586625 107.050781 434.218187 107.253281
L 434.218187 106.505156
Q 434.661156 106.333594 435.078812 106.249219
Q 435.496469 106.163438 435.891625 106.163438
Q 436.960375 106.163438 437.487719 106.7175
Q 438.015062 107.270156 438.015062 108.395156
z
" style="fill: #3b82c4; opacity: 0.72; stroke: #fbfaf7; stroke-width: 3.5"/>
    <path d="M 415.63266 106.426406
L 415.63266 107.191406
Q 415.290941 107.015625 414.921097 106.928438
Q 414.55266 106.839844 414.156097 106.839844
Q 413.554222 106.839844 413.253285 107.024063
Q 412.952347 107.208281 412.952347 107.578125
Q 412.952347 107.859375 413.167504 108.019688
Q 413.38266 108.18 414.033754 108.324844
L 414.310785 108.386719
Q 415.17141 108.570938 415.534222 108.907031
Q 415.897035 109.243125 415.897035 109.845
Q 415.897035 110.53125 415.354222 110.932031
Q 414.81141 111.331406 413.862191 111.331406
Q 413.467035 111.331406 413.038129 111.254063
Q 412.609222 111.176719 412.135316 111.023438
L 412.135316 110.188125
Q 412.58391 110.421563 413.018441 110.538281
Q 413.452972 110.653594 413.880472 110.653594
Q 414.45141 110.653594 414.757972 110.458125
Q 415.065941 110.262656 415.065941 109.906875
Q 415.065941 109.577813 414.843754 109.402031
Q 414.622972 109.22625 413.870629 109.063125
L 413.589379 108.997031
Q 412.838441 108.839531 412.503754 108.511875
Q 412.170472 108.184219 412.170472 107.613281
Q 412.170472 106.918594 412.66266 106.541719
Q 413.154847 106.163438 414.060472 106.163438
Q 414.50766 106.163438 414.902816 106.229531
Q 415.299379 106.294219 415.63266 106.426406
z
M 417.184281 106.281563
L 417.992875 106.281563
L 417.992875 111.203438
L 417.184281 111.203438
L 417.184281 106.281563
z
M 417.184281 104.364844
L 417.992875 104.364844
L 417.992875 105.39
L 417.184281 105.39
L 417.184281 104.364844
z
M 422.923363 108.684844
Q 422.923363 107.805938 422.560551 107.323594
Q 422.199144 106.839844 421.543832 106.839844
Q 420.894144 106.839844 420.531332 107.323594
Q 420.168519 107.805938 420.168519 108.684844
Q 420.168519 109.559531 420.531332 110.043281
Q 420.894144 110.527031 421.543832 110.527031
Q 422.199144 110.527031 422.560551 110.043281
Q 422.923363 109.559531 422.923363 108.684844
z
M 423.731957 110.593125
Q 423.731957 111.848906 423.173676 112.462031
Q 422.616801 113.075156 421.465082 113.075156
Q 421.038988 113.075156 420.660707 113.011875
Q 420.282426 112.948594 419.926644 112.816406
L 419.926644 112.030313
Q 420.282426 112.222969 420.629769 112.314375
Q 420.977113 112.407188 421.337113 112.407188
Q 422.133051 112.407188 422.528207 111.992344
Q 422.923363 111.5775 422.923363 110.737969
L 422.923363 110.337188
Q 422.673051 110.773125 422.282113 110.988281
Q 421.891176 111.203438 421.345551 111.203438
Q 420.441332 111.203438 419.887269 110.514375
Q 419.333207 109.823906 419.333207 108.684844
Q 419.333207 107.542969 419.887269 106.853906
Q 420.441332 106.163438 421.345551 106.163438
Q 421.891176 106.163438 422.282113 106.378594
Q 422.673051 106.59375 422.923363 107.028281
L 422.923363 106.281563
L 423.731957 106.281563
L 423.731957 110.593125
z
M 429.229691 107.226562
Q 429.533441 106.680938 429.955316 106.422188
Q 430.377191 106.163438 430.948129 106.163438
Q 431.717347 106.163438 432.135004 106.702031
Q 432.55266 107.239219 432.55266 108.232031
L 432.55266 111.203438
L 431.739847 111.203438
L 431.739847 108.25875
Q 431.739847 107.551406 431.488129 107.209688
Q 431.237816 106.866563 430.724535 106.866563
Q 430.095941 106.866563 429.730316 107.284219
Q 429.366097 107.700469 429.366097 108.421875
L 429.366097 111.203438
L 428.553285 111.203438
L 428.553285 108.25875
Q 428.553285 107.547188 428.302972 107.206875
Q 428.05266 106.866563 427.529535 106.866563
Q 426.909379 106.866563 426.543754 107.285625
Q 426.179535 107.704688 426.179535 108.421875
L 426.179535 111.203438
L 425.366722 111.203438
L 425.366722 106.281563
L 426.179535 106.281563
L 426.179535 107.046563
Q 426.456566 106.59375 426.843285 106.378594
Q 427.230004 106.163438 427.761566 106.163438
Q 428.298754 106.163438 428.674222 106.43625
Q 429.049691 106.707656 429.229691 107.226562
z
M 436.402094 108.729844
Q 435.421937 108.729844 435.043656 108.953438
Q 434.665375 109.177031 434.665375 109.718438
Q 434.665375 110.14875 434.949437 110.401875
Q 435.2335 110.653594 435.720062 110.653594
Q 436.393656 110.653594 436.800062 110.176875
Q 437.206469 109.700156 437.206469 108.909844
L 437.206469 108.729844
L 436.402094 108.729844
z
M 438.015062 108.395156
L 438.015062 111.203438
L 437.206469 111.203438
L 437.206469 110.456719
Q 436.929437 110.903906 436.516 111.117656
Q 436.102562 111.331406 435.504906 111.331406
Q 434.74975 111.331406 434.302562 110.906719
Q 433.856781 110.482031 433.856781 109.770469
Q 433.856781 108.940781 434.41225 108.518906
Q 434.969125 108.097031 436.071625 108.097031
L 437.206469 108.097031
L 437.206469 108.016875
Q 437.206469 107.458594 436.839437 107.153438
Q 436.472406 106.848281 435.808656 106.848281
Q 435.386781 106.848281 434.986 106.949531
Q 434.586625 107.050781 434.218187 107.253281
L 434.218187 106.505156
Q 434.661156 106.333594 435.078812 106.249219
Q 435.496469 106.163438 435.891625 106.163438
Q 436.960375 106.163438 437.487719 106.7175
Q 438.015062 107.270156 438.015062 108.395156
z
" style="fill: #3b82c4; opacity: 0.72"/>
   </g>
   <g id="text_13">
    <path d="M 412.495316 126.650558
L 413.30391 126.650558
L 413.30391 133.489152
L 412.495316 133.489152
L 412.495316 126.650558
z
M 416.90268 129.133996
Q 416.252992 129.133996 415.874711 129.641652
Q 415.49643 130.149308 415.49643 131.032433
Q 415.49643 131.915558 415.871898 132.423214
Q 416.248773 132.930871 416.90268 132.930871
Q 417.549555 132.930871 417.92643 132.421808
Q 418.304711 131.911339 418.304711 131.032433
Q 418.304711 130.157746 417.92643 129.645871
Q 417.549555 129.133996 416.90268 129.133996
z
M 416.90268 128.449152
Q 417.957367 128.449152 418.559242 129.135402
Q 419.162523 129.820246 419.162523 131.032433
Q 419.162523 132.240402 418.559242 132.929464
Q 417.957367 133.617121 416.90268 133.617121
Q 415.843773 133.617121 415.243305 132.929464
Q 414.644242 132.240402 414.644242 131.032433
Q 414.644242 129.820246 415.243305 129.135402
Q 415.843773 128.449152 416.90268 128.449152
z
M 423.740746 130.970558
Q 423.740746 130.091652 423.377933 129.609308
Q 423.016527 129.125558 422.361215 129.125558
Q 421.711527 129.125558 421.348715 129.609308
Q 420.985902 130.091652 420.985902 130.970558
Q 420.985902 131.845246 421.348715 132.328996
Q 421.711527 132.812746 422.361215 132.812746
Q 423.016527 132.812746 423.377933 132.328996
Q 423.740746 131.845246 423.740746 130.970558
z
M 424.54934 132.878839
Q 424.54934 134.134621 423.991058 134.747746
Q 423.434183 135.360871 422.282465 135.360871
Q 421.856371 135.360871 421.47809 135.297589
Q 421.099808 135.234308 420.744027 135.102121
L 420.744027 134.316027
Q 421.099808 134.508683 421.447152 134.600089
Q 421.794496 134.692902 422.154496 134.692902
Q 422.950433 134.692902 423.34559 134.278058
Q 423.740746 133.863214 423.740746 133.023683
L 423.740746 132.622902
Q 423.490433 133.058839 423.099496 133.273996
Q 422.708558 133.489152 422.162933 133.489152
Q 421.258715 133.489152 420.704652 132.800089
Q 420.15059 132.109621 420.15059 130.970558
Q 420.15059 129.828683 420.704652 129.139621
Q 421.258715 128.449152 422.162933 128.449152
Q 422.708558 128.449152 423.099496 128.664308
Q 423.490433 128.879464 423.740746 129.313996
L 423.740746 128.567277
L 424.54934 128.567277
L 424.54934 132.878839
z
M 430.18348 127.142746
L 430.18348 128.008996
Q 429.678637 127.767121 429.230043 127.648996
Q 428.781449 127.529464 428.363793 127.529464
Q 427.639574 127.529464 427.245824 127.810714
Q 426.852074 128.091964 426.852074 128.610871
Q 426.852074 129.046808 427.113637 129.268996
Q 427.375199 129.489777 428.105043 129.626183
L 428.640824 129.735871
Q 429.633637 129.925714 430.106137 130.402433
Q 430.578637 130.879152 430.578637 131.677902
Q 430.578637 132.632746 429.938793 133.124933
Q 429.300355 133.617121 428.065668 133.617121
Q 427.600199 133.617121 427.074262 133.511652
Q 426.54973 133.406183 425.98723 133.199464
L 425.98723 132.285402
Q 426.52723 132.587746 427.046137 132.742433
Q 427.565043 132.895714 428.065668 132.895714
Q 428.825043 132.895714 429.23848 132.597589
Q 429.651918 132.298058 429.651918 131.743996
Q 429.651918 131.261652 429.355199 130.988839
Q 429.05848 130.716027 428.382074 130.579621
L 427.840668 130.474152
Q 426.847855 130.277277 426.40348 129.855402
Q 425.960512 129.433527 425.960512 128.681183
Q 425.960512 127.810714 426.573637 127.310089
Q 427.186762 126.809464 428.262543 126.809464
Q 428.725199 126.809464 429.203324 126.893839
Q 429.682855 126.976808 430.18348 127.142746
z
M 431.96309 126.927589
L 433.158402 126.927589
L 436.067933 132.416183
L 436.067933 126.927589
L 436.928558 126.927589
L 436.928558 133.489152
L 435.733246 133.489152
L 432.825121 128.000558
L 432.825121 133.489152
L 431.96309 133.489152
L 431.96309 126.927589
z
M 441.807543 130.412277
Q 442.093012 130.509308 442.363012 130.825714
Q 442.633012 131.142121 442.905824 131.696183
L 443.80723 133.489152
L 442.852387 133.489152
L 442.014262 131.805871
Q 441.688012 131.146339 441.382855 130.931183
Q 441.077699 130.716027 440.550355 130.716027
L 439.582855 130.716027
L 439.582855 133.489152
L 438.695512 133.489152
L 438.695512 126.927589
L 440.699418 126.927589
Q 441.824418 126.927589 442.37848 127.398683
Q 442.932543 127.868371 442.932543 128.817589
Q 442.932543 129.437746 442.644262 129.846964
Q 442.35598 130.254777 441.807543 130.412277
z
M 439.582855 127.657433
L 439.582855 129.986183
L 440.699418 129.986183
Q 441.340668 129.986183 441.668324 129.689464
Q 441.99598 129.392746 441.99598 128.817589
Q 441.99598 128.242433 441.668324 127.949933
Q 441.340668 127.657433 440.699418 127.657433
L 439.582855 127.657433
z
M 445.019242 129.402589
L 450.65268 129.402589
L 450.65268 130.140871
L 445.019242 130.140871
L 445.019242 129.402589
z
M 445.019242 131.195558
L 450.65268 131.195558
L 450.65268 131.942277
L 445.019242 131.942277
L 445.019242 131.195558
z
M 455.306664 129.322433
Q 455.170258 129.243683 455.009945 129.207121
Q 454.849633 129.169152 454.656976 129.169152
Q 453.970726 129.169152 453.603695 129.614933
Q 453.236664 130.060714 453.236664 130.896027
L 453.236664 133.489152
L 452.423851 133.489152
L 452.423851 128.567277
L 453.236664 128.567277
L 453.236664 129.332277
Q 453.492601 128.883683 453.900414 128.667121
Q 454.309633 128.449152 454.894633 128.449152
Q 454.977601 128.449152 455.078851 128.460402
Q 455.180101 128.470246 455.302445 128.492746
L 455.306664 129.322433
z
M 458.392328 131.015558
Q 457.412172 131.015558 457.03389 131.239152
Q 456.655609 131.462746 456.655609 132.004152
Q 456.655609 132.434464 456.939672 132.687589
Q 457.223734 132.939308 457.710297 132.939308
Q 458.38389 132.939308 458.790297 132.462589
Q 459.196703 131.985871 459.196703 131.195558
L 459.196703 131.015558
L 458.392328 131.015558
z
M 460.005297 130.680871
L 460.005297 133.489152
L 459.196703 133.489152
L 459.196703 132.742433
Q 458.919672 133.189621 458.506234 133.403371
Q 458.092797 133.617121 457.49514 133.617121
Q 456.739984 133.617121 456.292797 133.192433
Q 455.847015 132.767746 455.847015 132.056183
Q 455.847015 131.226496 456.402484 130.804621
Q 456.959359 130.382746 458.061859 130.382746
L 459.196703 130.382746
L 459.196703 130.302589
Q 459.196703 129.744308 458.829672 129.439152
Q 458.46264 129.133996 457.79889 129.133996
Q 457.377015 129.133996 456.976234 129.235246
Q 456.576859 129.336496 456.208422 129.538996
L 456.208422 128.790871
Q 456.65139 128.619308 457.069047 128.534933
Q 457.486703 128.449152 457.881859 128.449152
Q 458.950609 128.449152 459.477953 129.003214
Q 460.005297 129.555871 460.005297 130.680871
z
M 461.200433 128.567277
L 462.009027 128.567277
L 463.020121 132.407746
L 464.02559 128.567277
L 464.979027 128.567277
L 465.990121 132.407746
L 466.996996 128.567277
L 467.80559 128.567277
L 466.517465 133.489152
L 465.564027 133.489152
L 464.505121 129.454621
L 463.441996 133.489152
L 462.487152 133.489152
L 461.200433 128.567277
z
" style="fill: #7e62c7; opacity: 0.72; stroke: #fbfaf7; stroke-width: 3.5"/>
    <path d="M 412.495316 126.650558
L 413.30391 126.650558
L 413.30391 133.489152
L 412.495316 133.489152
L 412.495316 126.650558
z
M 416.90268 129.133996
Q 416.252992 129.133996 415.874711 129.641652
Q 415.49643 130.149308 415.49643 131.032433
Q 415.49643 131.915558 415.871898 132.423214
Q 416.248773 132.930871 416.90268 132.930871
Q 417.549555 132.930871 417.92643 132.421808
Q 418.304711 131.911339 418.304711 131.032433
Q 418.304711 130.157746 417.92643 129.645871
Q 417.549555 129.133996 416.90268 129.133996
z
M 416.90268 128.449152
Q 417.957367 128.449152 418.559242 129.135402
Q 419.162523 129.820246 419.162523 131.032433
Q 419.162523 132.240402 418.559242 132.929464
Q 417.957367 133.617121 416.90268 133.617121
Q 415.843773 133.617121 415.243305 132.929464
Q 414.644242 132.240402 414.644242 131.032433
Q 414.644242 129.820246 415.243305 129.135402
Q 415.843773 128.449152 416.90268 128.449152
z
M 423.740746 130.970558
Q 423.740746 130.091652 423.377933 129.609308
Q 423.016527 129.125558 422.361215 129.125558
Q 421.711527 129.125558 421.348715 129.609308
Q 420.985902 130.091652 420.985902 130.970558
Q 420.985902 131.845246 421.348715 132.328996
Q 421.711527 132.812746 422.361215 132.812746
Q 423.016527 132.812746 423.377933 132.328996
Q 423.740746 131.845246 423.740746 130.970558
z
M 424.54934 132.878839
Q 424.54934 134.134621 423.991058 134.747746
Q 423.434183 135.360871 422.282465 135.360871
Q 421.856371 135.360871 421.47809 135.297589
Q 421.099808 135.234308 420.744027 135.102121
L 420.744027 134.316027
Q 421.099808 134.508683 421.447152 134.600089
Q 421.794496 134.692902 422.154496 134.692902
Q 422.950433 134.692902 423.34559 134.278058
Q 423.740746 133.863214 423.740746 133.023683
L 423.740746 132.622902
Q 423.490433 133.058839 423.099496 133.273996
Q 422.708558 133.489152 422.162933 133.489152
Q 421.258715 133.489152 420.704652 132.800089
Q 420.15059 132.109621 420.15059 130.970558
Q 420.15059 129.828683 420.704652 129.139621
Q 421.258715 128.449152 422.162933 128.449152
Q 422.708558 128.449152 423.099496 128.664308
Q 423.490433 128.879464 423.740746 129.313996
L 423.740746 128.567277
L 424.54934 128.567277
L 424.54934 132.878839
z
M 430.18348 127.142746
L 430.18348 128.008996
Q 429.678637 127.767121 429.230043 127.648996
Q 428.781449 127.529464 428.363793 127.529464
Q 427.639574 127.529464 427.245824 127.810714
Q 426.852074 128.091964 426.852074 128.610871
Q 426.852074 129.046808 427.113637 129.268996
Q 427.375199 129.489777 428.105043 129.626183
L 428.640824 129.735871
Q 429.633637 129.925714 430.106137 130.402433
Q 430.578637 130.879152 430.578637 131.677902
Q 430.578637 132.632746 429.938793 133.124933
Q 429.300355 133.617121 428.065668 133.617121
Q 427.600199 133.617121 427.074262 133.511652
Q 426.54973 133.406183 425.98723 133.199464
L 425.98723 132.285402
Q 426.52723 132.587746 427.046137 132.742433
Q 427.565043 132.895714 428.065668 132.895714
Q 428.825043 132.895714 429.23848 132.597589
Q 429.651918 132.298058 429.651918 131.743996
Q 429.651918 131.261652 429.355199 130.988839
Q 429.05848 130.716027 428.382074 130.579621
L 427.840668 130.474152
Q 426.847855 130.277277 426.40348 129.855402
Q 425.960512 129.433527 425.960512 128.681183
Q 425.960512 127.810714 426.573637 127.310089
Q 427.186762 126.809464 428.262543 126.809464
Q 428.725199 126.809464 429.203324 126.893839
Q 429.682855 126.976808 430.18348 127.142746
z
M 431.96309 126.927589
L 433.158402 126.927589
L 436.067933 132.416183
L 436.067933 126.927589
L 436.928558 126.927589
L 436.928558 133.489152
L 435.733246 133.489152
L 432.825121 128.000558
L 432.825121 133.489152
L 431.96309 133.489152
L 431.96309 126.927589
z
M 441.807543 130.412277
Q 442.093012 130.509308 442.363012 130.825714
Q 442.633012 131.142121 442.905824 131.696183
L 443.80723 133.489152
L 442.852387 133.489152
L 442.014262 131.805871
Q 441.688012 131.146339 441.382855 130.931183
Q 441.077699 130.716027 440.550355 130.716027
L 439.582855 130.716027
L 439.582855 133.489152
L 438.695512 133.489152
L 438.695512 126.927589
L 440.699418 126.927589
Q 441.824418 126.927589 442.37848 127.398683
Q 442.932543 127.868371 442.932543 128.817589
Q 442.932543 129.437746 442.644262 129.846964
Q 442.35598 130.254777 441.807543 130.412277
z
M 439.582855 127.657433
L 439.582855 129.986183
L 440.699418 129.986183
Q 441.340668 129.986183 441.668324 129.689464
Q 441.99598 129.392746 441.99598 128.817589
Q 441.99598 128.242433 441.668324 127.949933
Q 441.340668 127.657433 440.699418 127.657433
L 439.582855 127.657433
z
M 445.019242 129.402589
L 450.65268 129.402589
L 450.65268 130.140871
L 445.019242 130.140871
L 445.019242 129.402589
z
M 445.019242 131.195558
L 450.65268 131.195558
L 450.65268 131.942277
L 445.019242 131.942277
L 445.019242 131.195558
z
M 455.306664 129.322433
Q 455.170258 129.243683 455.009945 129.207121
Q 454.849633 129.169152 454.656976 129.169152
Q 453.970726 129.169152 453.603695 129.614933
Q 453.236664 130.060714 453.236664 130.896027
L 453.236664 133.489152
L 452.423851 133.489152
L 452.423851 128.567277
L 453.236664 128.567277
L 453.236664 129.332277
Q 453.492601 128.883683 453.900414 128.667121
Q 454.309633 128.449152 454.894633 128.449152
Q 454.977601 128.449152 455.078851 128.460402
Q 455.180101 128.470246 455.302445 128.492746
L 455.306664 129.322433
z
M 458.392328 131.015558
Q 457.412172 131.015558 457.03389 131.239152
Q 456.655609 131.462746 456.655609 132.004152
Q 456.655609 132.434464 456.939672 132.687589
Q 457.223734 132.939308 457.710297 132.939308
Q 458.38389 132.939308 458.790297 132.462589
Q 459.196703 131.985871 459.196703 131.195558
L 459.196703 131.015558
L 458.392328 131.015558
z
M 460.005297 130.680871
L 460.005297 133.489152
L 459.196703 133.489152
L 459.196703 132.742433
Q 458.919672 133.189621 458.506234 133.403371
Q 458.092797 133.617121 457.49514 133.617121
Q 456.739984 133.617121 456.292797 133.192433
Q 455.847015 132.767746 455.847015 132.056183
Q 455.847015 131.226496 456.402484 130.804621
Q 456.959359 130.382746 458.061859 130.382746
L 459.196703 130.382746
L 459.196703 130.302589
Q 459.196703 129.744308 458.829672 129.439152
Q 458.46264 129.133996 457.79889 129.133996
Q 457.377015 129.133996 456.976234 129.235246
Q 456.576859 129.336496 456.208422 129.538996
L 456.208422 128.790871
Q 456.65139 128.619308 457.069047 128.534933
Q 457.486703 128.449152 457.881859 128.449152
Q 458.950609 128.449152 459.477953 129.003214
Q 460.005297 129.555871 460.005297 130.680871
z
M 461.200433 128.567277
L 462.009027 128.567277
L 463.020121 132.407746
L 464.02559 128.567277
L 464.979027 128.567277
L 465.990121 132.407746
L 466.996996 128.567277
L 467.80559 128.567277
L 466.517465 133.489152
L 465.564027 133.489152
L 464.505121 129.454621
L 463.441996 133.489152
L 462.487152 133.489152
L 461.200433 128.567277
z
" style="fill: #7e62c7; opacity: 0.72"/>
   </g>
   <g id="text_14">
    <g id="patch_5">
     <path d="M 350.149258 300.835112
L 432.102383 300.835112
Q 433.902383 300.835112 433.902383 299.035112
L 433.902383 276.759174
Q 433.902383 274.959174 432.102383 274.959174
L 350.149258 274.959174
Q 348.349258 274.959174 348.349258 276.759174
L 348.349258 299.035112
Q 348.349258 300.835112 350.149258 300.835112
z
" style="fill: #fbfaf7; opacity: 0.92"/>
    </g>
    <text style="font-size: 10px; font-family: 'DejaVu Sans'; fill: #0f766e" transform="translate(350.849258 285.057612)">official skip</text>
    <text style="font-size: 10px; font-family: 'DejaVu Sans'; fill: #0f766e" transform="translate(350.849258 296.255424)">beats every row</text>
   </g>
   <g id="text_15">
    <g id="patch_6">
     <path d="M 321.538392 94.023683
L 400.958705 94.023683
Q 402.758705 94.023683 402.758705 92.223683
L 402.758705 69.947746
Q 402.758705 68.147746 400.958705 68.147746
L 321.538392 68.147746
Q 319.738392 68.147746 319.738392 69.947746
L 319.738392 92.223683
Q 319.738392 94.023683 321.538392 94.023683
z
" style="fill: #fbfaf7; opacity: 0.92"/>
    </g>
    <text style="font-size: 10px; font-family: 'DejaVu Sans'; fill: #b65f1b" transform="translate(322.238392 78.246183)">damage: mixed</text>
    <text style="font-size: 10px; font-family: 'DejaVu Sans'; fill: #b65f1b" transform="translate(322.238392 89.443996)">not stable</text>
   </g>
  </g>
  <g id="axes_2">
   <g id="patch_7">
    <path d="M 541.402094 218.736
L 691.162094 218.736
Q 696.403694 218.736 696.403694 209.664
L 696.403694 98.208
Q 696.403694 89.136 691.162094 89.136
L 541.402094 89.136
Q 536.160494 89.136 536.160494 98.208
L 536.160494 209.664
Q 536.160494 218.736 541.402094 218.736
z
" clip-path="url(#pa1ec5cc8a7)" style="fill: #ffffff; opacity: 0.86"/>
   </g>
   <g id="text_16">
    <text style="font-size: 9px; font-family: 'DejaVu Sans'; text-anchor: start; fill: #6b7280" x="553.382894" y="124.019437" transform="rotate(-0 553.382894 124.019437)">main read</text>
   </g>
   <g id="text_17">
    <text style="font-weight: 700; font-size: 14px; font-family: 'DejaVu Sans'; fill: #b65f1b" transform="translate(553.382894 171.053812)">The proposed</text>
    <text style="font-weight: 700; font-size: 14px; font-family: 'DejaVu Sans'; fill: #b65f1b" transform="translate(553.382894 186.73075)">damage sampler</text>
    <text style="font-weight: 700; font-size: 14px; font-family: 'DejaVu Sans'; fill: #b65f1b" transform="translate(553.382894 202.517062)">only helps at</text>
    <text style="font-weight: 700; font-size: 14px; font-family: 'DejaVu Sans'; fill: #b65f1b" transform="translate(553.382894 218.303375)">NFE=4.</text>
   </g>
   <g id="text_18">
    <text style="font-size: 10.5px; font-family: 'DejaVu Sans'; fill: #0f766e" transform="translate(553.382894 279.850359)">The checkpoint-native</text>
    <text style="font-size: 10.5px; font-family: 'DejaVu Sans'; fill: #0f766e" transform="translate(553.382894 291.608062)">official skip rule is</text>
    <text style="font-size: 10.5px; font-family: 'DejaVu Sans'; fill: #0f766e" transform="translate(553.382894 303.365766)">3.5-4.3 FID better</text>
    <text style="font-size: 10.5px; font-family: 'DejaVu Sans'; fill: #0f766e" transform="translate(553.382894 315.123469)">than raw.</text>
   </g>
  </g>
  <g id="text_19">
   <text style="font-weight: 700; font-size: 17px; font-family: 'DejaVu Sans'; text-anchor: start; fill: #171717" x="20.986094" y="18.677344" transform="rotate(-0 20.986094 18.677344)">The fixed-checkpoint sampler gate failed</text>
  </g>
  <g id="text_20">
   <text style="font-size: 10.5px; font-family: 'DejaVu Sans'; text-anchor: start; fill: #6b7280" x="20.986094" y="33.178359" transform="rotate(-0 20.986094 33.178359)">Paired FID delta vs raw clock; lower is better. 1024 samples/cell, seeds 17/23/31.</text>
  </g>
  <g id="text_21">
   <text style="font-size: 8.8px; font-family: 'DejaVu Sans'; text-anchor: start; fill: #6b7280" x="39.706094" y="388.08" transform="rotate(-0 39.706094 388.08)">This is a non-submission diagnostic, not a FID50k benchmark.</text>
  </g>
 </g>
 <defs>
  <clipPath id="pc4bbe0e899">
   <rect x="39.706094" y="61.92" width="479.232" height="280.8"/>
  </clipPath>
  <clipPath id="pa1ec5cc8a7">
   <rect x="541.402094" y="74.88" width="149.76" height="259.2"/>
  </clipPath>
 </defs>
</svg>
