<?xml version="1.0" encoding="utf-8" standalone="no"?>
<!DOCTYPE svg PUBLIC "-//W3C//DTD SVG 1.1//EN"
  "http://www.w3.org/Graphics/SVG/1.1/DTD/svg11.dtd">
<svg xmlns:xlink="http://www.w3.org/1999/xlink" width="673.381196pt" height="369.341719pt" viewBox="0 0 673.381196 369.341719" xmlns="http://www.w3.org/2000/svg" version="1.1">
 <metadata>
  <rdf:RDF xmlns:dc="http://purl.org/dc/elements/1.1/" xmlns:cc="http://creativecommons.org/ns#" xmlns:rdf="http://www.w3.org/1999/02/22-rdf-syntax-ns#">
   <cc:Work>
    <dc:type rdf:resource="http://purl.org/dc/dcmitype/StillImage"/>
    <dc:date>2026-06-16T10:11:58.124592</dc:date>
    <dc:format>image/svg+xml</dc:format>
    <dc:creator>
     <cc:Agent>
      <dc:title>Matplotlib v3.10.8, https://matplotlib.org/</dc:title>
     </cc:Agent>
    </dc:creator>
   </cc:Work>
  </rdf:RDF>
 </metadata>
 <defs>
  <style type="text/css">*{stroke-linejoin: round; stroke-linecap: butt}</style>
 </defs>
 <g id="figure_1">
  <g id="patch_1">
   <path d="M 0 369.341719
L 673.381196 369.341719
L 673.381196 0
L 0 0
z
" style="fill: #fbfaf7"/>
  </g>
  <g id="axes_1">
   <g id="patch_2">
    <path d="M 32.164375 314.928
L 599.380375 314.928
L 599.380375 62.712
L 32.164375 62.712
z
" style="fill: #fbfaf7"/>
   </g>
   <g id="line2d_1">
    <path d="M 60.525175 273.159745
L 222.586889 208.900892
L 546.710318 80.383185
" clip-path="url(#p5b8ebefe2b)" style="fill: none; stroke-dasharray: 4,5; stroke-dashoffset: 0; stroke: #171717; stroke-opacity: 0.4"/>
   </g>
   <g id="matplotlib.axis_1">
    <g id="xtick_1">
     <g id="line2d_2">
      <defs>
       <path id="m5323d099c3" d="M 0 0
L 0 3.5
" style="stroke: #6b7280; stroke-width: 0.8"/>
      </defs>
      <g>
       <use xlink:href="#m5323d099c3" x="60.525175" y="314.928" style="fill: #6b7280; stroke: #6b7280; stroke-width: 0.8"/>
      </g>
     </g>
     <g id="text_1">
      <text style="font-size: 9px; font-family: 'DejaVu Sans'; text-anchor: middle; fill: #6b7280" x="60.525175" y="328.766594" transform="rotate(-0 60.525175 328.766594)">2</text>
     </g>
    </g>
    <g id="xtick_2">
     <g id="line2d_3">
      <g>
       <use xlink:href="#m5323d099c3" x="222.586889" y="314.928" style="fill: #6b7280; stroke: #6b7280; stroke-width: 0.8"/>
      </g>
     </g>
     <g id="text_2">
      <text style="font-size: 9px; font-family: 'DejaVu Sans'; text-anchor: middle; fill: #6b7280" x="222.586889" y="328.766594" transform="rotate(-0 222.586889 328.766594)">4</text>
     </g>
    </g>
    <g id="xtick_3">
     <g id="line2d_4">
      <g>
       <use xlink:href="#m5323d099c3" x="546.710318" y="314.928" style="fill: #6b7280; stroke: #6b7280; stroke-width: 0.8"/>
      </g>
     </g>
     <g id="text_3">
      <text style="font-size: 9px; font-family: 'DejaVu Sans'; text-anchor: middle; fill: #6b7280" x="546.710318" y="328.766594" transform="rotate(-0 546.710318 328.766594)">8</text>
     </g>
    </g>
    <g id="text_4">
     <text style="font-size: 10px; font-family: 'DejaVu Sans'; text-anchor: middle" x="315.772375" y="342.23675" transform="rotate(-0 315.772375 342.23675)">nominal NFE</text>
    </g>
   </g>
   <g id="matplotlib.axis_2">
    <g id="ytick_1">
     <g id="line2d_5">
      <path d="M 32.164375 305.289172
L 599.380375 305.289172
" clip-path="url(#p5b8ebefe2b)" style="fill: none; stroke: #e8e2d8; stroke-opacity: 0.72; stroke-width: 0.8; stroke-linecap: square"/>
     </g>
     <g id="line2d_6">
      <defs>
       <path id="m08cb9e070f" d="M 0 0
L -3.5 0
" style="stroke: #6b7280; stroke-width: 0.8"/>
      </defs>
      <g>
       <use xlink:href="#m08cb9e070f" x="32.164375" y="305.289172" style="fill: #6b7280; stroke: #6b7280; stroke-width: 0.8"/>
      </g>
     </g>
     <g id="text_5">
      <text style="font-size: 9px; font-family: 'DejaVu Sans'; text-anchor: end; fill: #6b7280" x="25.164375" y="308.708469" transform="rotate(-0 25.164375 308.708469)">1</text>
     </g>
    </g>
    <g id="ytick_2">
     <g id="line2d_7">
      <path d="M 32.164375 273.159745
L 599.380375 273.159745
" clip-path="url(#p5b8ebefe2b)" style="fill: none; stroke: #e8e2d8; stroke-opacity: 0.72; stroke-width: 0.8; stroke-linecap: square"/>
     </g>
     <g id="line2d_8">
      <g>
       <use xlink:href="#m08cb9e070f" x="32.164375" y="273.159745" style="fill: #6b7280; stroke: #6b7280; stroke-width: 0.8"/>
      </g>
     </g>
     <g id="text_6">
      <text style="font-size: 9px; font-family: 'DejaVu Sans'; text-anchor: end; fill: #6b7280" x="25.164375" y="276.579042" transform="rotate(-0 25.164375 276.579042)">2</text>
     </g>
    </g>
    <g id="ytick_3">
     <g id="line2d_9">
      <path d="M 32.164375 241.030318
L 599.380375 241.030318
" clip-path="url(#p5b8ebefe2b)" style="fill: none; stroke: #e8e2d8; stroke-opacity: 0.72; stroke-width: 0.8; stroke-linecap: square"/>
     </g>
     <g id="line2d_10">
      <g>
       <use xlink:href="#m08cb9e070f" x="32.164375" y="241.030318" style="fill: #6b7280; stroke: #6b7280; stroke-width: 0.8"/>
      </g>
     </g>
     <g id="text_7">
      <text style="font-size: 9px; font-family: 'DejaVu Sans'; text-anchor: end; fill: #6b7280" x="25.164375" y="244.449615" transform="rotate(-0 25.164375 244.449615)">3</text>
     </g>
    </g>
    <g id="ytick_4">
     <g id="line2d_11">
      <path d="M 32.164375 208.900892
L 599.380375 208.900892
" clip-path="url(#p5b8ebefe2b)" style="fill: none; stroke: #e8e2d8; stroke-opacity: 0.72; stroke-width: 0.8; stroke-linecap: square"/>
     </g>
     <g id="line2d_12">
      <g>
       <use xlink:href="#m08cb9e070f" x="32.164375" y="208.900892" style="fill: #6b7280; stroke: #6b7280; stroke-width: 0.8"/>
      </g>
     </g>
     <g id="text_8">
      <text style="font-size: 9px; font-family: 'DejaVu Sans'; text-anchor: end; fill: #6b7280" x="25.164375" y="212.320189" transform="rotate(-0 25.164375 212.320189)">4</text>
     </g>
    </g>
    <g id="ytick_5">
     <g id="line2d_13">
      <path d="M 32.164375 144.642038
L 599.380375 144.642038
" clip-path="url(#p5b8ebefe2b)" style="fill: none; stroke: #e8e2d8; stroke-opacity: 0.72; stroke-width: 0.8; stroke-linecap: square"/>
     </g>
     <g id="line2d_14">
      <g>
       <use xlink:href="#m08cb9e070f" x="32.164375" y="144.642038" style="fill: #6b7280; stroke: #6b7280; stroke-width: 0.8"/>
      </g>
     </g>
     <g id="text_9">
      <text style="font-size: 9px; font-family: 'DejaVu Sans'; text-anchor: end; fill: #6b7280" x="25.164375" y="148.061335" transform="rotate(-0 25.164375 148.061335)">6</text>
     </g>
    </g>
    <g id="ytick_6">
     <g id="line2d_15">
      <path d="M 32.164375 80.383185
L 599.380375 80.383185
" clip-path="url(#p5b8ebefe2b)" style="fill: none; stroke: #e8e2d8; stroke-opacity: 0.72; stroke-width: 0.8; stroke-linecap: square"/>
     </g>
     <g id="line2d_16">
      <g>
       <use xlink:href="#m08cb9e070f" x="32.164375" y="80.383185" style="fill: #6b7280; stroke: #6b7280; stroke-width: 0.8"/>
      </g>
     </g>
     <g id="text_10">
      <text style="font-size: 9px; font-family: 'DejaVu Sans'; text-anchor: end; fill: #6b7280" x="25.164375" y="83.802482" transform="rotate(-0 25.164375 83.802482)">8</text>
     </g>
    </g>
    <g id="text_11">
     <text style="font-size: 10px; font-family: 'DejaVu Sans'; text-anchor: middle" x="13.358438" y="188.82" transform="rotate(-90 13.358438 188.82)">effective model evaluations</text>
    </g>
   </g>
   <g id="patch_3">
    <path d="M 32.164375 314.928
L 32.164375 62.712
" style="fill: none; stroke: #d9d4ca; stroke-width: 0.8; stroke-linejoin: miter; stroke-linecap: square"/>
   </g>
   <g id="patch_4">
    <path d="M 32.164375 314.928
L 599.380375 314.928
" style="fill: none; stroke: #d9d4ca; stroke-width: 0.8; stroke-linejoin: miter; stroke-linecap: square"/>
   </g>
   <g id="line2d_17">
    <path d="M 52.422089 273.159745
L 214.483804 273.159745
L 538.607232 273.159745
" clip-path="url(#p5b8ebefe2b)" style="fill: none; stroke: #0f766e; stroke-opacity: 0.98; stroke-width: 2.7; stroke-linecap: round"/>
    <defs>
     <path id="m427519957b" d="M 0 3.5
C 0.928211 3.5 1.81853 3.131218 2.474874 2.474874
C 3.131218 1.81853 3.5 0.928211 3.5 0
C 3.5 -0.928211 3.131218 -1.81853 2.474874 -2.474874
C 1.81853 -3.131218 0.928211 -3.5 0 -3.5
C -0.928211 -3.5 -1.81853 -3.131218 -2.474874 -2.474874
C -3.131218 -1.81853 -3.5 -0.928211 -3.5 0
C -3.5 0.928211 -3.131218 1.81853 -2.474874 2.474874
C -1.81853 3.131218 -0.928211 3.5 0 3.5
z
" style="stroke: #0f766e; stroke-opacity: 0.98"/>
    </defs>
    <g clip-path="url(#p5b8ebefe2b)">
     <use xlink:href="#m427519957b" x="52.422089" y="273.159745" style="fill: #0f766e; fill-opacity: 0.98; stroke: #0f766e; stroke-opacity: 0.98"/>
     <use xlink:href="#m427519957b" x="214.483804" y="273.159745" style="fill: #0f766e; fill-opacity: 0.98; stroke: #0f766e; stroke-opacity: 0.98"/>
     <use xlink:href="#m427519957b" x="538.607232" y="273.159745" style="fill: #0f766e; fill-opacity: 0.98; stroke: #0f766e; stroke-opacity: 0.98"/>
    </g>
   </g>
   <g id="line2d_18">
    <path d="M 57.283941 273.159745
L 219.345655 208.900892
L 543.469084 80.383185
" clip-path="url(#p5b8ebefe2b)" style="fill: none; stroke: #5b6472; stroke-opacity: 0.98; stroke-width: 2.7; stroke-linecap: round"/>
    <defs>
     <path id="m851cfb7da1" d="M 0 3.5
C 0.928211 3.5 1.81853 3.131218 2.474874 2.474874
C 3.131218 1.81853 3.5 0.928211 3.5 0
C 3.5 -0.928211 3.131218 -1.81853 2.474874 -2.474874
C 1.81853 -3.131218 0.928211 -3.5 0 -3.5
C -0.928211 -3.5 -1.81853 -3.131218 -2.474874 -2.474874
C -3.131218 -1.81853 -3.5 -0.928211 -3.5 0
C -3.5 0.928211 -3.131218 1.81853 -2.474874 2.474874
C -1.81853 3.131218 -0.928211 3.5 0 3.5
z
" style="stroke: #5b6472; stroke-opacity: 0.98"/>
    </defs>
    <g clip-path="url(#p5b8ebefe2b)">
     <use xlink:href="#m851cfb7da1" x="57.283941" y="273.159745" style="fill: #5b6472; fill-opacity: 0.98; stroke: #5b6472; stroke-opacity: 0.98"/>
     <use xlink:href="#m851cfb7da1" x="219.345655" y="208.900892" style="fill: #5b6472; fill-opacity: 0.98; stroke: #5b6472; stroke-opacity: 0.98"/>
     <use xlink:href="#m851cfb7da1" x="543.469084" y="80.383185" style="fill: #5b6472; fill-opacity: 0.98; stroke: #5b6472; stroke-opacity: 0.98"/>
    </g>
   </g>
   <g id="line2d_19">
    <path d="M 62.145792 273.159745
L 224.207506 241.030318
L 548.330935 208.900892
" clip-path="url(#p5b8ebefe2b)" style="fill: none; stroke: #b65f1b; stroke-opacity: 0.98; stroke-width: 2.7; stroke-linecap: round"/>
    <defs>
     <path id="m006b648974" d="M 0 3.5
C 0.928211 3.5 1.81853 3.131218 2.474874 2.474874
C 3.131218 1.81853 3.5 0.928211 3.5 0
C 3.5 -0.928211 3.131218 -1.81853 2.474874 -2.474874
C 1.81853 -3.131218 0.928211 -3.5 0 -3.5
C -0.928211 -3.5 -1.81853 -3.131218 -2.474874 -2.474874
C -3.131218 -1.81853 -3.5 -0.928211 -3.5 0
C -3.5 0.928211 -3.131218 1.81853 -2.474874 2.474874
C -1.81853 3.131218 -0.928211 3.5 0 3.5
z
" style="stroke: #b65f1b; stroke-opacity: 0.98"/>
    </defs>
    <g clip-path="url(#p5b8ebefe2b)">
     <use xlink:href="#m006b648974" x="62.145792" y="273.159745" style="fill: #b65f1b; fill-opacity: 0.98; stroke: #b65f1b; stroke-opacity: 0.98"/>
     <use xlink:href="#m006b648974" x="224.207506" y="241.030318" style="fill: #b65f1b; fill-opacity: 0.98; stroke: #b65f1b; stroke-opacity: 0.98"/>
     <use xlink:href="#m006b648974" x="548.330935" y="208.900892" style="fill: #b65f1b; fill-opacity: 0.98; stroke: #b65f1b; stroke-opacity: 0.98"/>
    </g>
   </g>
   <g id="line2d_20">
    <path d="M 67.007644 273.159745
L 229.069358 273.159745
L 553.192786 241.030318
" clip-path="url(#p5b8ebefe2b)" style="fill: none; stroke: #3b82c4; stroke-opacity: 0.58; stroke-width: 1.8; stroke-linecap: round"/>
    <defs>
     <path id="m2da8501bd6" d="M 0 2.5
C 0.663008 2.5 1.29895 2.236584 1.767767 1.767767
C 2.236584 1.29895 2.5 0.663008 2.5 0
C 2.5 -0.663008 2.236584 -1.29895 1.767767 -1.767767
C 1.29895 -2.236584 0.663008 -2.5 0 -2.5
C -0.663008 -2.5 -1.29895 -2.236584 -1.767767 -1.767767
C -2.236584 -1.29895 -2.5 -0.663008 -2.5 0
C -2.5 0.663008 -2.236584 1.29895 -1.767767 1.767767
C -1.29895 2.236584 -0.663008 2.5 0 2.5
z
" style="stroke: #3b82c4; stroke-opacity: 0.58"/>
    </defs>
    <g clip-path="url(#p5b8ebefe2b)">
     <use xlink:href="#m2da8501bd6" x="67.007644" y="273.159745" style="fill: #3b82c4; fill-opacity: 0.58; stroke: #3b82c4; stroke-opacity: 0.58"/>
     <use xlink:href="#m2da8501bd6" x="229.069358" y="273.159745" style="fill: #3b82c4; fill-opacity: 0.58; stroke: #3b82c4; stroke-opacity: 0.58"/>
     <use xlink:href="#m2da8501bd6" x="553.192786" y="241.030318" style="fill: #3b82c4; fill-opacity: 0.58; stroke: #3b82c4; stroke-opacity: 0.58"/>
    </g>
   </g>
   <g id="line2d_21">
    <path d="M 71.869495 273.159745
L 233.931209 208.900892
L 558.054638 80.383185
" clip-path="url(#p5b8ebefe2b)" style="fill: none; stroke: #7e62c7; stroke-opacity: 0.58; stroke-width: 1.8; stroke-linecap: round"/>
    <defs>
     <path id="mc8679e38c6" d="M 0 2.5
C 0.663008 2.5 1.29895 2.236584 1.767767 1.767767
C 2.236584 1.29895 2.5 0.663008 2.5 0
C 2.5 -0.663008 2.236584 -1.29895 1.767767 -1.767767
C 1.29895 -2.236584 0.663008 -2.5 0 -2.5
C -0.663008 -2.5 -1.29895 -2.236584 -1.767767 -1.767767
C -2.236584 -1.29895 -2.5 -0.663008 -2.5 0
C -2.5 0.663008 -2.236584 1.29895 -1.767767 1.767767
C -1.29895 2.236584 -0.663008 2.5 0 2.5
z
" style="stroke: #7e62c7; stroke-opacity: 0.58"/>
    </defs>
    <g clip-path="url(#p5b8ebefe2b)">
     <use xlink:href="#mc8679e38c6" x="71.869495" y="273.159745" style="fill: #7e62c7; fill-opacity: 0.58; stroke: #7e62c7; stroke-opacity: 0.58"/>
     <use xlink:href="#mc8679e38c6" x="233.931209" y="208.900892" style="fill: #7e62c7; fill-opacity: 0.58; stroke: #7e62c7; stroke-opacity: 0.58"/>
     <use xlink:href="#mc8679e38c6" x="558.054638" y="80.383185" style="fill: #7e62c7; fill-opacity: 0.58; stroke: #7e62c7; stroke-opacity: 0.58"/>
    </g>
   </g>
   <g id="text_12">
    <path d="M 454.834107 70.720646
L 454.834107 73.692052
L 454.025513 73.692052
L 454.025513 70.747364
Q 454.025513 70.048458 453.752701 69.702521
Q 453.479888 69.355177 452.93567 69.355177
Q 452.280357 69.355177 451.902076 69.772833
Q 451.523795 70.189083 451.523795 70.910489
L 451.523795 73.692052
L 450.710982 73.692052
L 450.710982 68.770177
L 451.523795 68.770177
L 451.523795 69.535177
Q 451.814888 69.090802 452.207232 68.871427
Q 452.600982 68.652052 453.11567 68.652052
Q 453.963638 68.652052 454.39817 69.176583
Q 454.834107 69.701114 454.834107 70.720646
z
M 458.352896 69.336896
Q 457.703209 69.336896 457.324927 69.844552
Q 456.946646 70.352208 456.946646 71.235333
Q 456.946646 72.118458 457.322115 72.626114
Q 457.69899 73.133771 458.352896 73.133771
Q 458.999771 73.133771 459.376646 72.624708
Q 459.754927 72.114239 459.754927 71.235333
Q 459.754927 70.360646 459.376646 69.848771
Q 458.999771 69.336896 458.352896 69.336896
z
M 458.352896 68.652052
Q 459.407584 68.652052 460.009459 69.338302
Q 460.61274 70.023146 460.61274 71.235333
Q 460.61274 72.443302 460.009459 73.132364
Q 459.407584 73.820021 458.352896 73.820021
Q 457.29399 73.820021 456.693521 73.132364
Q 456.094459 72.443302 456.094459 71.235333
Q 456.094459 70.023146 456.693521 69.338302
Q 457.29399 68.652052 458.352896 68.652052
z
M 465.7844 69.715177
Q 466.08815 69.169552 466.510025 68.910802
Q 466.9319 68.652052 467.502838 68.652052
Q 468.272056 68.652052 468.689713 69.190646
Q 469.107369 69.727833 469.107369 70.720646
L 469.107369 73.692052
L 468.294556 73.692052
L 468.294556 70.747364
Q 468.294556 70.040021 468.042838 69.698302
Q 467.792525 69.355177 467.279244 69.355177
Q 466.65065 69.355177 466.285025 69.772833
Q 465.920806 70.189083 465.920806 70.910489
L 465.920806 73.692052
L 465.107994 73.692052
L 465.107994 70.747364
Q 465.107994 70.035802 464.857681 69.695489
Q 464.607369 69.355177 464.084244 69.355177
Q 463.464088 69.355177 463.098463 69.774239
Q 462.734244 70.193302 462.734244 70.910489
L 462.734244 73.692052
L 461.921431 73.692052
L 461.921431 68.770177
L 462.734244 68.770177
L 462.734244 69.535177
Q 463.011275 69.082364 463.397994 68.867208
Q 463.784713 68.652052 464.316275 68.652052
Q 464.853463 68.652052 465.228931 68.924864
Q 465.6044 69.196271 465.7844 69.715177
z
M 470.719459 68.770177
L 471.528052 68.770177
L 471.528052 73.692052
L 470.719459 73.692052
L 470.719459 68.770177
z
M 470.719459 66.853458
L 471.528052 66.853458
L 471.528052 67.878614
L 470.719459 67.878614
L 470.719459 66.853458
z
M 477.312134 70.720646
L 477.312134 73.692052
L 476.503541 73.692052
L 476.503541 70.747364
Q 476.503541 70.048458 476.230728 69.702521
Q 475.957916 69.355177 475.413697 69.355177
Q 474.758384 69.355177 474.380103 69.772833
Q 474.001822 70.189083 474.001822 70.910489
L 474.001822 73.692052
L 473.189009 73.692052
L 473.189009 68.770177
L 474.001822 68.770177
L 474.001822 69.535177
Q 474.292916 69.090802 474.685259 68.871427
Q 475.079009 68.652052 475.593697 68.652052
Q 476.441666 68.652052 476.876197 69.176583
Q 477.312134 69.701114 477.312134 70.720646
z
M 481.161392 71.218458
Q 480.181236 71.218458 479.802955 71.442052
Q 479.424674 71.665646 479.424674 72.207052
Q 479.424674 72.637364 479.708736 72.890489
Q 479.992799 73.142208 480.479361 73.142208
Q 481.152955 73.142208 481.559361 72.665489
Q 481.965767 72.188771 481.965767 71.398458
L 481.965767 71.218458
L 481.161392 71.218458
z
M 482.774361 70.883771
L 482.774361 73.692052
L 481.965767 73.692052
L 481.965767 72.945333
Q 481.688736 73.392521 481.275299 73.606271
Q 480.861861 73.820021 480.264205 73.820021
Q 479.509049 73.820021 479.061861 73.395333
Q 478.61608 72.970646 478.61608 72.259083
Q 478.61608 71.429396 479.171549 71.007521
Q 479.728424 70.585646 480.830924 70.585646
L 481.965767 70.585646
L 481.965767 70.505489
Q 481.965767 69.947208 481.598736 69.642052
Q 481.231705 69.336896 480.567955 69.336896
Q 480.14608 69.336896 479.745299 69.438146
Q 479.345924 69.539396 478.977486 69.741896
L 478.977486 68.993771
Q 479.420455 68.822208 479.838111 68.737833
Q 480.255767 68.652052 480.650924 68.652052
Q 481.719674 68.652052 482.247017 69.206114
Q 482.774361 69.758771 482.774361 70.883771
z
M 484.439185 66.853458
L 485.247779 66.853458
L 485.247779 73.692052
L 484.439185 73.692052
L 484.439185 66.853458
z
M 489.905982 69.605489
L 495.53942 69.605489
L 495.53942 70.343771
L 489.905982 70.343771
L 489.905982 69.605489
z
M 489.905982 71.398458
L 495.53942 71.398458
L 495.53942 72.145177
L 489.905982 72.145177
L 489.905982 71.398458
z
M 504.412681 71.028614
L 504.412681 71.423771
L 500.694556 71.423771
Q 500.747994 72.259083 501.197994 72.696427
Q 501.647994 73.133771 502.452369 73.133771
Q 502.917838 73.133771 503.355181 73.019864
Q 503.792525 72.905958 504.224244 72.676739
L 504.224244 73.441739
Q 503.788306 73.625958 503.331275 73.722989
Q 502.874244 73.820021 502.404556 73.820021
Q 501.226119 73.820021 500.538463 73.135177
Q 499.850806 72.448927 499.850806 71.278927
Q 499.850806 70.070958 500.503306 69.362208
Q 501.155806 68.652052 502.263931 68.652052
Q 503.256744 68.652052 503.834713 69.291896
Q 504.412681 69.930333 504.412681 71.028614
z
M 503.604088 70.790958
Q 503.59565 70.128614 503.232838 69.733458
Q 502.870025 69.336896 502.272369 69.336896
Q 501.595963 69.336896 501.189556 69.719396
Q 500.78315 70.101896 500.721275 70.796583
L 503.604088 70.790958
z
M 508.231353 66.853458
L 508.231353 67.527052
L 507.457916 67.527052
Q 507.023384 67.527052 506.853228 67.702833
Q 506.684478 67.878614 506.684478 68.335646
L 506.684478 68.770177
L 508.016197 68.770177
L 508.016197 69.398771
L 506.684478 69.398771
L 506.684478 73.692052
L 505.871666 73.692052
L 505.871666 69.398771
L 505.098228 69.398771
L 505.098228 68.770177
L 505.871666 68.770177
L 505.871666 68.427052
Q 505.871666 67.605802 506.254166 67.230333
Q 506.636666 66.853458 507.466353 66.853458
L 508.231353 66.853458
z
M 511.39981 66.853458
L 511.39981 67.527052
L 510.626373 67.527052
Q 510.191842 67.527052 510.021685 67.702833
Q 509.852935 67.878614 509.852935 68.335646
L 509.852935 68.770177
L 511.184654 68.770177
L 511.184654 69.398771
L 509.852935 69.398771
L 509.852935 73.692052
L 509.040123 73.692052
L 509.040123 69.398771
L 508.266685 69.398771
L 508.266685 68.770177
L 509.040123 68.770177
L 509.040123 68.427052
Q 509.040123 67.605802 509.422623 67.230333
Q 509.805123 66.853458 510.63481 66.853458
L 511.39981 66.853458
z
M 516.286705 71.028614
L 516.286705 71.423771
L 512.56858 71.423771
Q 512.622017 72.259083 513.072017 72.696427
Q 513.522017 73.133771 514.326392 73.133771
Q 514.791861 73.133771 515.229205 73.019864
Q 515.666549 72.905958 516.098267 72.676739
L 516.098267 73.441739
Q 515.66233 73.625958 515.205299 73.722989
Q 514.748267 73.820021 514.27858 73.820021
Q 513.100142 73.820021 512.412486 73.135177
Q 511.72483 72.448927 511.72483 71.278927
Q 511.72483 70.070958 512.37733 69.362208
Q 513.02983 68.652052 514.137955 68.652052
Q 515.130767 68.652052 515.708736 69.291896
Q 516.286705 69.930333 516.286705 71.028614
z
M 515.478111 70.790958
Q 515.469674 70.128614 515.106861 69.733458
Q 514.744049 69.336896 514.146392 69.336896
Q 513.469986 69.336896 513.06358 69.719396
Q 512.657174 70.101896 512.595299 70.796583
L 515.478111 70.790958
z
M 521.155845 68.958614
L 521.155845 69.715177
Q 520.81272 69.525333 520.468189 69.431114
Q 520.123658 69.336896 519.772095 69.336896
Q 518.984595 69.336896 518.548658 69.836114
Q 518.114127 70.333927 518.114127 71.235333
Q 518.114127 72.136739 518.548658 72.635958
Q 518.984595 73.133771 519.772095 73.133771
Q 520.123658 73.133771 520.468189 73.039552
Q 520.81272 72.945333 521.155845 72.755489
L 521.155845 73.503614
Q 520.816939 73.661114 520.454127 73.739864
Q 520.09272 73.820021 519.683502 73.820021
Q 518.571158 73.820021 517.915845 73.121114
Q 517.261939 72.422208 517.261939 71.235333
Q 517.261939 70.031583 517.922877 69.342521
Q 518.58522 68.652052 519.736939 68.652052
Q 520.109595 68.652052 520.465377 68.729396
Q 520.821158 68.805333 521.155845 68.958614
z
M 523.3619 67.372364
L 523.3619 68.770177
L 525.0269 68.770177
L 525.0269 69.398771
L 523.3619 69.398771
L 523.3619 72.070646
Q 523.3619 72.672521 523.526431 72.844083
Q 523.690963 73.015646 524.197213 73.015646
L 525.0269 73.015646
L 525.0269 73.692052
L 524.197213 73.692052
Q 523.26065 73.692052 522.904869 73.343302
Q 522.549088 72.993146 522.549088 72.070646
L 522.549088 69.398771
L 521.95565 69.398771
L 521.95565 68.770177
L 522.549088 68.770177
L 522.549088 67.372364
L 523.3619 67.372364
z
M 526.090552 68.770177
L 526.899146 68.770177
L 526.899146 73.692052
L 526.090552 73.692052
L 526.090552 68.770177
z
M 526.090552 66.853458
L 526.899146 66.853458
L 526.899146 67.878614
L 526.090552 67.878614
L 526.090552 66.853458
z
M 528.011666 68.770177
L 528.868072 68.770177
L 530.406509 72.900333
L 531.944947 68.770177
L 532.801353 68.770177
L 530.954947 73.692052
L 529.856666 73.692052
L 528.011666 68.770177
z
M 538.127525 71.028614
L 538.127525 71.423771
L 534.4094 71.423771
Q 534.462838 72.259083 534.912838 72.696427
Q 535.362838 73.133771 536.167213 73.133771
Q 536.632681 73.133771 537.070025 73.019864
Q 537.507369 72.905958 537.939088 72.676739
L 537.939088 73.441739
Q 537.50315 73.625958 537.046119 73.722989
Q 536.589088 73.820021 536.1194 73.820021
Q 534.940963 73.820021 534.253306 73.135177
Q 533.56565 72.448927 533.56565 71.278927
Q 533.56565 70.070958 534.21815 69.362208
Q 534.87065 68.652052 535.978775 68.652052
Q 536.971588 68.652052 537.549556 69.291896
Q 538.127525 69.930333 538.127525 71.028614
z
M 537.318931 70.790958
Q 537.310494 70.128614 536.947681 69.733458
Q 536.584869 69.336896 535.987213 69.336896
Q 535.310806 69.336896 534.9044 69.719396
Q 534.497994 70.101896 534.436119 70.796583
L 537.318931 70.790958
z
" style="fill: #6b7280; stroke: #fbfaf7; stroke-opacity: 0.92; stroke-width: 3"/>
    <path d="M 454.834107 70.720646
L 454.834107 73.692052
L 454.025513 73.692052
L 454.025513 70.747364
Q 454.025513 70.048458 453.752701 69.702521
Q 453.479888 69.355177 452.93567 69.355177
Q 452.280357 69.355177 451.902076 69.772833
Q 451.523795 70.189083 451.523795 70.910489
L 451.523795 73.692052
L 450.710982 73.692052
L 450.710982 68.770177
L 451.523795 68.770177
L 451.523795 69.535177
Q 451.814888 69.090802 452.207232 68.871427
Q 452.600982 68.652052 453.11567 68.652052
Q 453.963638 68.652052 454.39817 69.176583
Q 454.834107 69.701114 454.834107 70.720646
z
M 458.352896 69.336896
Q 457.703209 69.336896 457.324927 69.844552
Q 456.946646 70.352208 456.946646 71.235333
Q 456.946646 72.118458 457.322115 72.626114
Q 457.69899 73.133771 458.352896 73.133771
Q 458.999771 73.133771 459.376646 72.624708
Q 459.754927 72.114239 459.754927 71.235333
Q 459.754927 70.360646 459.376646 69.848771
Q 458.999771 69.336896 458.352896 69.336896
z
M 458.352896 68.652052
Q 459.407584 68.652052 460.009459 69.338302
Q 460.61274 70.023146 460.61274 71.235333
Q 460.61274 72.443302 460.009459 73.132364
Q 459.407584 73.820021 458.352896 73.820021
Q 457.29399 73.820021 456.693521 73.132364
Q 456.094459 72.443302 456.094459 71.235333
Q 456.094459 70.023146 456.693521 69.338302
Q 457.29399 68.652052 458.352896 68.652052
z
M 465.7844 69.715177
Q 466.08815 69.169552 466.510025 68.910802
Q 466.9319 68.652052 467.502838 68.652052
Q 468.272056 68.652052 468.689713 69.190646
Q 469.107369 69.727833 469.107369 70.720646
L 469.107369 73.692052
L 468.294556 73.692052
L 468.294556 70.747364
Q 468.294556 70.040021 468.042838 69.698302
Q 467.792525 69.355177 467.279244 69.355177
Q 466.65065 69.355177 466.285025 69.772833
Q 465.920806 70.189083 465.920806 70.910489
L 465.920806 73.692052
L 465.107994 73.692052
L 465.107994 70.747364
Q 465.107994 70.035802 464.857681 69.695489
Q 464.607369 69.355177 464.084244 69.355177
Q 463.464088 69.355177 463.098463 69.774239
Q 462.734244 70.193302 462.734244 70.910489
L 462.734244 73.692052
L 461.921431 73.692052
L 461.921431 68.770177
L 462.734244 68.770177
L 462.734244 69.535177
Q 463.011275 69.082364 463.397994 68.867208
Q 463.784713 68.652052 464.316275 68.652052
Q 464.853463 68.652052 465.228931 68.924864
Q 465.6044 69.196271 465.7844 69.715177
z
M 470.719459 68.770177
L 471.528052 68.770177
L 471.528052 73.692052
L 470.719459 73.692052
L 470.719459 68.770177
z
M 470.719459 66.853458
L 471.528052 66.853458
L 471.528052 67.878614
L 470.719459 67.878614
L 470.719459 66.853458
z
M 477.312134 70.720646
L 477.312134 73.692052
L 476.503541 73.692052
L 476.503541 70.747364
Q 476.503541 70.048458 476.230728 69.702521
Q 475.957916 69.355177 475.413697 69.355177
Q 474.758384 69.355177 474.380103 69.772833
Q 474.001822 70.189083 474.001822 70.910489
L 474.001822 73.692052
L 473.189009 73.692052
L 473.189009 68.770177
L 474.001822 68.770177
L 474.001822 69.535177
Q 474.292916 69.090802 474.685259 68.871427
Q 475.079009 68.652052 475.593697 68.652052
Q 476.441666 68.652052 476.876197 69.176583
Q 477.312134 69.701114 477.312134 70.720646
z
M 481.161392 71.218458
Q 480.181236 71.218458 479.802955 71.442052
Q 479.424674 71.665646 479.424674 72.207052
Q 479.424674 72.637364 479.708736 72.890489
Q 479.992799 73.142208 480.479361 73.142208
Q 481.152955 73.142208 481.559361 72.665489
Q 481.965767 72.188771 481.965767 71.398458
L 481.965767 71.218458
L 481.161392 71.218458
z
M 482.774361 70.883771
L 482.774361 73.692052
L 481.965767 73.692052
L 481.965767 72.945333
Q 481.688736 73.392521 481.275299 73.606271
Q 480.861861 73.820021 480.264205 73.820021
Q 479.509049 73.820021 479.061861 73.395333
Q 478.61608 72.970646 478.61608 72.259083
Q 478.61608 71.429396 479.171549 71.007521
Q 479.728424 70.585646 480.830924 70.585646
L 481.965767 70.585646
L 481.965767 70.505489
Q 481.965767 69.947208 481.598736 69.642052
Q 481.231705 69.336896 480.567955 69.336896
Q 480.14608 69.336896 479.745299 69.438146
Q 479.345924 69.539396 478.977486 69.741896
L 478.977486 68.993771
Q 479.420455 68.822208 479.838111 68.737833
Q 480.255767 68.652052 480.650924 68.652052
Q 481.719674 68.652052 482.247017 69.206114
Q 482.774361 69.758771 482.774361 70.883771
z
M 484.439185 66.853458
L 485.247779 66.853458
L 485.247779 73.692052
L 484.439185 73.692052
L 484.439185 66.853458
z
M 489.905982 69.605489
L 495.53942 69.605489
L 495.53942 70.343771
L 489.905982 70.343771
L 489.905982 69.605489
z
M 489.905982 71.398458
L 495.53942 71.398458
L 495.53942 72.145177
L 489.905982 72.145177
L 489.905982 71.398458
z
M 504.412681 71.028614
L 504.412681 71.423771
L 500.694556 71.423771
Q 500.747994 72.259083 501.197994 72.696427
Q 501.647994 73.133771 502.452369 73.133771
Q 502.917838 73.133771 503.355181 73.019864
Q 503.792525 72.905958 504.224244 72.676739
L 504.224244 73.441739
Q 503.788306 73.625958 503.331275 73.722989
Q 502.874244 73.820021 502.404556 73.820021
Q 501.226119 73.820021 500.538463 73.135177
Q 499.850806 72.448927 499.850806 71.278927
Q 499.850806 70.070958 500.503306 69.362208
Q 501.155806 68.652052 502.263931 68.652052
Q 503.256744 68.652052 503.834713 69.291896
Q 504.412681 69.930333 504.412681 71.028614
z
M 503.604088 70.790958
Q 503.59565 70.128614 503.232838 69.733458
Q 502.870025 69.336896 502.272369 69.336896
Q 501.595963 69.336896 501.189556 69.719396
Q 500.78315 70.101896 500.721275 70.796583
L 503.604088 70.790958
z
M 508.231353 66.853458
L 508.231353 67.527052
L 507.457916 67.527052
Q 507.023384 67.527052 506.853228 67.702833
Q 506.684478 67.878614 506.684478 68.335646
L 506.684478 68.770177
L 508.016197 68.770177
L 508.016197 69.398771
L 506.684478 69.398771
L 506.684478 73.692052
L 505.871666 73.692052
L 505.871666 69.398771
L 505.098228 69.398771
L 505.098228 68.770177
L 505.871666 68.770177
L 505.871666 68.427052
Q 505.871666 67.605802 506.254166 67.230333
Q 506.636666 66.853458 507.466353 66.853458
L 508.231353 66.853458
z
M 511.39981 66.853458
L 511.39981 67.527052
L 510.626373 67.527052
Q 510.191842 67.527052 510.021685 67.702833
Q 509.852935 67.878614 509.852935 68.335646
L 509.852935 68.770177
L 511.184654 68.770177
L 511.184654 69.398771
L 509.852935 69.398771
L 509.852935 73.692052
L 509.040123 73.692052
L 509.040123 69.398771
L 508.266685 69.398771
L 508.266685 68.770177
L 509.040123 68.770177
L 509.040123 68.427052
Q 509.040123 67.605802 509.422623 67.230333
Q 509.805123 66.853458 510.63481 66.853458
L 511.39981 66.853458
z
M 516.286705 71.028614
L 516.286705 71.423771
L 512.56858 71.423771
Q 512.622017 72.259083 513.072017 72.696427
Q 513.522017 73.133771 514.326392 73.133771
Q 514.791861 73.133771 515.229205 73.019864
Q 515.666549 72.905958 516.098267 72.676739
L 516.098267 73.441739
Q 515.66233 73.625958 515.205299 73.722989
Q 514.748267 73.820021 514.27858 73.820021
Q 513.100142 73.820021 512.412486 73.135177
Q 511.72483 72.448927 511.72483 71.278927
Q 511.72483 70.070958 512.37733 69.362208
Q 513.02983 68.652052 514.137955 68.652052
Q 515.130767 68.652052 515.708736 69.291896
Q 516.286705 69.930333 516.286705 71.028614
z
M 515.478111 70.790958
Q 515.469674 70.128614 515.106861 69.733458
Q 514.744049 69.336896 514.146392 69.336896
Q 513.469986 69.336896 513.06358 69.719396
Q 512.657174 70.101896 512.595299 70.796583
L 515.478111 70.790958
z
M 521.155845 68.958614
L 521.155845 69.715177
Q 520.81272 69.525333 520.468189 69.431114
Q 520.123658 69.336896 519.772095 69.336896
Q 518.984595 69.336896 518.548658 69.836114
Q 518.114127 70.333927 518.114127 71.235333
Q 518.114127 72.136739 518.548658 72.635958
Q 518.984595 73.133771 519.772095 73.133771
Q 520.123658 73.133771 520.468189 73.039552
Q 520.81272 72.945333 521.155845 72.755489
L 521.155845 73.503614
Q 520.816939 73.661114 520.454127 73.739864
Q 520.09272 73.820021 519.683502 73.820021
Q 518.571158 73.820021 517.915845 73.121114
Q 517.261939 72.422208 517.261939 71.235333
Q 517.261939 70.031583 517.922877 69.342521
Q 518.58522 68.652052 519.736939 68.652052
Q 520.109595 68.652052 520.465377 68.729396
Q 520.821158 68.805333 521.155845 68.958614
z
M 523.3619 67.372364
L 523.3619 68.770177
L 525.0269 68.770177
L 525.0269 69.398771
L 523.3619 69.398771
L 523.3619 72.070646
Q 523.3619 72.672521 523.526431 72.844083
Q 523.690963 73.015646 524.197213 73.015646
L 525.0269 73.015646
L 525.0269 73.692052
L 524.197213 73.692052
Q 523.26065 73.692052 522.904869 73.343302
Q 522.549088 72.993146 522.549088 72.070646
L 522.549088 69.398771
L 521.95565 69.398771
L 521.95565 68.770177
L 522.549088 68.770177
L 522.549088 67.372364
L 523.3619 67.372364
z
M 526.090552 68.770177
L 526.899146 68.770177
L 526.899146 73.692052
L 526.090552 73.692052
L 526.090552 68.770177
z
M 526.090552 66.853458
L 526.899146 66.853458
L 526.899146 67.878614
L 526.090552 67.878614
L 526.090552 66.853458
z
M 528.011666 68.770177
L 528.868072 68.770177
L 530.406509 72.900333
L 531.944947 68.770177
L 532.801353 68.770177
L 530.954947 73.692052
L 529.856666 73.692052
L 528.011666 68.770177
z
M 538.127525 71.028614
L 538.127525 71.423771
L 534.4094 71.423771
Q 534.462838 72.259083 534.912838 72.696427
Q 535.362838 73.133771 536.167213 73.133771
Q 536.632681 73.133771 537.070025 73.019864
Q 537.507369 72.905958 537.939088 72.676739
L 537.939088 73.441739
Q 537.50315 73.625958 537.046119 73.722989
Q 536.589088 73.820021 536.1194 73.820021
Q 534.940963 73.820021 534.253306 73.135177
Q 533.56565 72.448927 533.56565 71.278927
Q 533.56565 70.070958 534.21815 69.362208
Q 534.87065 68.652052 535.978775 68.652052
Q 536.971588 68.652052 537.549556 69.291896
Q 538.127525 69.930333 538.127525 71.028614
z
M 537.318931 70.790958
Q 537.310494 70.128614 536.947681 69.733458
Q 536.584869 69.336896 535.987213 69.336896
Q 535.310806 69.336896 534.9044 69.719396
Q 534.497994 70.101896 534.436119 70.796583
L 537.318931 70.790958
z
" style="fill: #6b7280"/>
   </g>
   <g id="text_13">
    <g id="patch_5">
     <path d="M 558.164946 278.892336
L 668.321196 278.892336
Q 670.121196 278.892336 670.121196 277.092336
L 670.121196 266.014211
Q 670.121196 264.214211 668.321196 264.214211
L 558.164946 264.214211
Q 556.364946 264.214211 556.364946 266.014211
L 556.364946 277.092336
Q 556.364946 278.892336 558.164946 278.892336
z
" style="fill: #fbfaf7; opacity: 0.88"/>
    </g>
    <text style="font-size: 10px; font-family: 'DejaVu Sans'; text-anchor: start; fill: #0f766e" x="558.864946" y="274.312649" transform="rotate(-0 558.864946 274.312649)">official skip stays at 2</text>
   </g>
   <g id="text_14">
    <g id="patch_6">
     <path d="M 558.164946 214.633483
L 652.496196 214.633483
Q 654.296196 214.633483 654.296196 212.833483
L 654.296196 201.755358
Q 654.296196 199.955358 652.496196 199.955358
L 558.164946 199.955358
Q 556.364946 199.955358 556.364946 201.755358
L 556.364946 212.833483
Q 556.364946 214.633483 558.164946 214.633483
z
" style="fill: #fbfaf7; opacity: 0.88"/>
    </g>
    <text style="font-size: 10px; font-family: 'DejaVu Sans'; text-anchor: start; fill: #b65f1b" x="558.864946" y="210.053795" transform="rotate(-0 558.864946 210.053795)">damage reaches 4</text>
   </g>
   <g id="text_15">
    <g id="patch_7">
     <path d="M 558.164946 87.079659
L 630.066509 87.079659
Q 631.866509 87.079659 631.866509 85.279659
L 631.866509 74.201534
Q 631.866509 72.401534 630.066509 72.401534
L 558.164946 72.401534
Q 556.364946 72.401534 556.364946 74.201534
L 556.364946 85.279659
Q 556.364946 87.079659 558.164946 87.079659
z
" style="fill: #fbfaf7; opacity: 0.88"/>
    </g>
    <text style="font-size: 10px; font-family: 'DejaVu Sans'; text-anchor: start; fill: #5b6472" x="558.864946" y="82.499971" transform="rotate(-0 558.864946 82.499971)">raw reaches 8</text>
   </g>
  </g>
  <g id="text_16">
   <text style="font-weight: 700; font-size: 17px; font-family: 'DejaVu Sans'; text-anchor: start; fill: #171717" x="13.984375" y="18.677344" transform="rotate(-0 13.984375 18.677344)">Nominal NFE hid a second problem</text>
  </g>
  <g id="text_17">
   <text style="font-size: 10.5px; font-family: 'DejaVu Sans'; text-anchor: start; fill: #6b7280" x="13.984375" y="32.044359" transform="rotate(-0 13.984375 32.044359)">Several rows collapse or saturate after timestep conversion and deduplication.</text>
  </g>
  <g id="text_18">
   <text style="font-size: 9px; font-family: 'DejaVu Sans'; text-anchor: start; fill: #6b7280" x="32.164375" y="361.71" transform="rotate(-0 32.164375 361.71)">Takeaway: schedule comparisons should report effective NFE, not only the requested budget.</text>
  </g>
 </g>
 <defs>
  <clipPath id="p5b8ebefe2b">
   <rect x="32.164375" y="62.712" width="567.216" height="252.216"/>
  </clipPath>
 </defs>
</svg>
